<?xml version="1.0" encoding="UTF-8"?>
<svg xmlns="http://www.w3.org/2000/svg" style="display: none;">
  
  <!-- Hair Dryer Icon -->
  <symbol id="hair-dryer" viewBox="0 0 24 24">
    <path d="M18 4h2a2 2 0 0 1 2 2v12a2 2 0 0 1-2 2h-2v-2h2V6h-2l-6 3v6l6 3v-2zm-8 1.5L8 4H4a2 2 0 0 0-2 2v12a2 2 0 0 0 2 2h4l2-1.5v-13zM8 7v10H4V7h4z" fill="currentColor"/>
  </symbol>

  <!-- Scissors Icon -->
  <symbol id="scissors" viewBox="0 0 24 24">
    <path d="M9.64 7.64c.23-.5.36-1.05.36-1.64 0-2.21-1.79-4-4-4S2 3.79 2 6s1.79 4 4 4c.59 0 1.14-.13 1.64-.36L10 12l-2.36 2.36C7.14 14.13 6.59 14 6 14c-2.21 0-4 1.79-4 4s1.79 4 4 4 4-1.79 4-4c0-.59-.13-1.14-.36-1.64L12 14l7 7h3v-1L9.64 7.64zM6 8c-1.1 0-2-.89-2-2s.89-2 2-2 2 .89 2 2-.89 2-2 2zm0 12c-1.1 0-2-.89-2-2s.89-2 2-2 2 .89 2 2-.89 2-2 2zm6-7.5c-.28 0-.5-.22-.5-.5s.22-.5.5-.5.5.22.5.5-.22.5-.5.5zM19 3l-6 6 2 2 7-7V3h-3z" fill="currentColor"/>
  </symbol>

  <!-- Hair Brush Icon -->
  <symbol id="hair-brush" viewBox="0 0 24 24">
    <path d="M16 7h1a1 1 0 0 1 1 1v8a1 1 0 0 1-1 1h-1v-2h1V9h-1l-1-1h-2l-1 1H8l-1-1H5l-1 1H3a1 1 0 0 0-1 1v6a1 1 0 0 0 1 1h1v2H3a3 3 0 0 1-3-3V8a3 3 0 0 1 3-3h2l1-1h2l1 1h4l1-1h2l1 1z" fill="currentColor"/>
    <rect x="6" y="9" width="1" height="8" fill="currentColor"/>
    <rect x="8" y="9" width="1" height="8" fill="currentColor"/>
    <rect x="10" y="9" width="1" height="8" fill="currentColor"/>
    <rect x="12" y="9" width="1" height="8" fill="currentColor"/>
    <rect x="14" y="9" width="1" height="8" fill="currentColor"/>
  </symbol>

  <!-- Curling Iron Icon -->
  <symbol id="curling-iron" viewBox="0 0 24 24">
    <path d="M22 12c0-1.66-1.34-3-3-3h-1V7c0-1.1-.9-2-2-2s-2 .9-2 2v2h-2V7c0-1.1-.9-2-2-2s-2 .9-2 2v2H6c-1.66 0-3 1.34-3 3s1.34 3 3 3h2v2c0 1.1.9 2 2 2s2-.9 2-2v-2h2v2c0 1.1.9 2 2 2s2-.9 2-2v-2h1c1.66 0 3-1.34 3-3z" fill="currentColor"/>
    <circle cx="3" cy="12" r="1" fill="currentColor"/>
  </symbol>

  <!-- Hair Color/Dye Icon -->
  <symbol id="hair-dye" viewBox="0 0 24 24">
    <path d="M12 2l-1 1v2h2V3l-1-1zm4.5 4.5L15 8l1.5 1.5 1.5-1.5L16.5 6.5zM6 8l1.5 1.5L9 8 7.5 6.5 6 8zm6 2c-3.31 0-6 2.69-6 6v6h12v-6c0-3.31-2.69-6-6-6zm-4 8v-2c0-2.21 1.79-4 4-4s4 1.79 4 4v2H8z" fill="currentColor"/>
  </symbol>

  <!-- Hair Straightener Icon -->
  <symbol id="hair-straightener" viewBox="0 0 24 24">
    <path d="M20 4H4c-1.1 0-2 .9-2 2v12c0 1.1.9 2 2 2h16c1.1 0 2-.9 2-2V6c0-1.1-.9-2-2-2zM4 18V6h16v12H4z" fill="currentColor"/>
    <rect x="6" y="8" width="12" height="2" fill="currentColor"/>
    <rect x="6" y="11" width="12" height="2" fill="currentColor"/>
    <rect x="6" y="14" width="12" height="2" fill="currentColor"/>
  </symbol>

  <!-- Hair Comb Icon -->
  <symbol id="hair-comb" viewBox="0 0 24 24">
    <path d="M20 3H4v2h16V3zM4 7v14h2V9h2v12h2V9h2v12h2V9h2v12h2V9h2v12h2V7H4z" fill="currentColor"/>
  </symbol>

  <!-- Beauty Crown Icon -->
  <symbol id="beauty-crown" viewBox="0 0 24 24">
    <path d="M12 2l2 5 5-2-2 5 5 2-5 2 2 5-5-2-2 5-2-5-5 2 2-5-5-2 5-2-2-5 5 2z" fill="currentColor"/>
  </symbol>

  <!-- Sparkle Icon -->
  <symbol id="sparkle" viewBox="0 0 24 24">
    <path d="M12 0l1.5 4.5L18 6l-4.5 1.5L12 12l-1.5-4.5L6 6l4.5-1.5L12 0z" fill="currentColor"/>
    <path d="M6 14l1 3 3 1-3 1-1 3-1-3-3-1 3-1 1-3z" fill="currentColor"/>
    <path d="M18 8l0.5 1.5L20 10l-1.5 0.5L18 12l-0.5-1.5L16 10l1.5-0.5L18 8z" fill="currentColor"/>
  </symbol>

  <!-- Hair Wave Icon -->
  <symbol id="hair-wave" viewBox="0 0 24 24">
    <path d="M2 12c0-2.5 2-4.5 4.5-4.5S11 9.5 11 12s-2 4.5-4.5 4.5S2 14.5 2 12zm11 0c0-2.5 2-4.5 4.5-4.5S22 9.5 22 12s-2 4.5-4.5 4.5S13 14.5 13 12z" fill="currentColor"/>
  </symbol>

</svg>